<?xml version="1.0" encoding="utf-8"?>
<!-- Generator: Adobe Illustrator 18.1.1, SVG Export Plug-In . SVG Version: 6.00 Build 0)  -->
<svg version="1.1" id="Layer_1" xmlns="http://www.w3.org/2000/svg" xmlns:xlink="http://www.w3.org/1999/xlink" x="0px" y="0px"
	 viewBox="0 0 612 792" enable-background="new 0 0 612 792" xml:space="preserve">
<g>
	<g>
		<path fill="#FFFFFF" d="M435.8,526c-85.9,0-171.8,0-257.8,0c0-85.9,0-171.9,0-257.9c85.9,0,171.8,0,257.8,0
			C435.8,354,435.8,440,435.8,526z M349.3,320.5c-2.2-0.3-3.2-0.5-4.1-0.5c-41.8,0-83.6-0.1-125.5,0.1
			c-14.2,0.1-24.7,11.1-24.7,25.4c0,41.2,0,82.3,0,123.5c0,16.1,10.2,26.5,26.5,26.6c40.7,0.1,81.3,0.1,122,0
			c16.5,0,26.7-10.4,26.7-27c0-38.5,0-77,0-115.5c0-1.6,0-3.2,0-6.4c-4.3,5.4-7.6,9.8-11.1,13.9c-2.7,3.1-3.6,6.3-3.6,10.4
			c0.2,32,0.1,64,0.1,96c0,10.2-3.5,13.6-13.5,13.6c-39.8,0-79.6,0-119.4,0c-9.3,0-12.7-3.4-12.7-12.6c0-40,0-80,0-120
			c0-9.6,3.3-13,12.9-13c35.3,0,70.6,0,106,0c1.9,0,4.3-0.1,5.6-1.2C339.2,329.9,343.7,325.5,349.3,320.5z M280.8,466.3
			c34-56.7,69-113.3,117.9-160.3c-9.6-0.1-18.2-1.2-26.5,5.2c-20.5,15.9-39.9,32.8-57.3,52c-11.9,13.2-23.3,26.9-35.1,40.6
			c-14.1-10.1-28.6-20.4-42.4-30.3c-4.6,4.4-8.8,8.4-12.7,12.1C243.4,412.6,262.1,439.5,280.8,466.3z"/>
		<path d="M349.3,320.5c-5.6,5-10.1,9.4-15,13.3c-1.3,1.1-3.7,1.2-5.6,1.2c-35.3,0.1-70.6,0-106,0c-9.5,0-12.9,3.4-12.9,13
			c0,40,0,80,0,120c0,9.2,3.5,12.6,12.7,12.6c39.8,0,79.6,0,119.4,0c10,0,13.4-3.4,13.5-13.6c0.1-32,0.1-64-0.1-96
			c0-4.1,0.9-7.4,3.6-10.4c3.5-4.1,6.8-8.4,11.1-13.9c0,3.2,0,4.8,0,6.4c0,38.5,0,77,0,115.5c0,16.5-10.2,27-26.7,27
			c-40.7,0.1-81.3,0.1-122,0c-16.3,0-26.5-10.4-26.5-26.6c0-41.2,0-82.3,0-123.5c0-14.2,10.5-25.3,24.7-25.4
			c41.8-0.2,83.6-0.1,125.5-0.1C346.1,320,347.1,320.2,349.3,320.5z"/>
		<path d="M280.8,466.3c-18.7-26.8-37.4-53.7-56.1-80.6c3.9-3.8,8.1-7.7,12.7-12.1c13.8,9.9,28.3,20.2,42.4,30.3
			c11.8-13.7,23.2-27.4,35.1-40.6c17.4-19.2,36.8-36.1,57.3-52c8.3-6.4,16.9-5.3,26.5-5.2C349.8,353,314.8,409.5,280.8,466.3z"/>
	</g>
</g>
</svg>
