<?xml version="1.0" encoding="utf-8"?>
<!-- Generator: Adobe Illustrator 18.1.1, SVG Export Plug-In . SVG Version: 6.00 Build 0)  -->
<svg version="1.1" id="Layer_1" xmlns="http://www.w3.org/2000/svg" xmlns:xlink="http://www.w3.org/1999/xlink" x="0px" y="0px"
	 viewBox="0 0 612 792" enable-background="new 0 0 612 792" xml:space="preserve">
<g>
	<path display="none" fill="#FFFFFF" d="M392,482c-56.7,0-113.3,0-170,0c0-56.7,0-113.3,0-170c56.7,0,113.3,0,170,0
		C392,368.7,392,425.3,392,482z M307.2,318c-43.4-0.1-79.1,35.2-79.2,78.6c-0.1,43.6,35,79.1,78.5,79.3c43.5,0.2,79.2-35,79.4-78.4
		C386.1,353.8,350.9,318.2,307.2,318z"/>
	<path d="M307.2,318c43.7,0.1,78.9,35.7,78.7,79.6c-0.2,43.3-35.9,78.6-79.4,78.4c-43.5-0.2-78.6-35.7-78.5-79.3
		C228.2,353.3,263.8,317.9,307.2,318z M263.9,430.9c29,0,57.3,0,85.7,0c1.6,11.3,1.6,11.1,10.9,11.3c4.1,0.1,5.1-1.6,5.3-5.2
		c0.3-5.1,1.3-10.2,1.3-15.3c0.1-8.4,0-16.9-0.8-25.2c-0.4-4.5-2.5-8.7-3.9-13.2c1.2-0.3,2.1-0.8,3.1-0.8c5-0.1,5.9-3,5.6-7.3
		c-0.3-4.9-4-3.4-6.7-3.8c-0.6-0.1-1.3,0-2,0.1c-4.7,0.8-8-0.6-10.5-5c-3.8-6.6-9.7-10.7-17.4-12.1c-16.9-3-33.7-3.2-50.7-0.7
		c-8.1,1.2-16,3-20.4,10.8c-3.4,5.9-7.8,8.2-14.5,7.1c-2.6-0.4-5.9-0.7-6,3.8c-0.1,3.6,0,6.8,4.8,7c1.3,0.1,2.5,0.7,4,1.1
		c-4.8,11-7.1,22.3-5.8,34.2c0.5,4.4,1.9,8.8,2,13.2c0.3,13.8-0.6,10.9,12.2,11.1c1.2,0,3.2-2,3.5-3.4
		C264.3,435.9,263.9,433,263.9,430.9z"/>
	<path display="none" fill="#FFFFFF" d="M263.9,430.9c0,2.2,0.4,5-0.2,7.7c-0.3,1.4-2.3,3.4-3.5,3.4c-12.8-0.2-11.9,2.7-12.2-11.1
		c-0.1-4.4-1.5-8.8-2-13.2c-1.4-11.9,1-23.2,5.8-34.2c-1.5-0.4-2.7-1.1-4-1.1c-4.8-0.2-4.9-3.4-4.8-7c0.1-4.5,3.3-4.2,6-3.8
		c6.7,1.1,11.1-1.2,14.5-7.1c4.4-7.7,12.3-9.6,20.4-10.8c16.9-2.5,33.8-2.3,50.7,0.7c7.7,1.4,13.6,5.4,17.4,12.1
		c2.5,4.4,5.8,5.9,10.5,5c0.6-0.1,1.3-0.2,2-0.1c2.7,0.4,6.3-1.1,6.7,3.8c0.3,4.3-0.6,7.2-5.6,7.3c-1,0-1.9,0.5-3.1,0.8
		c1.4,4.5,3.5,8.8,3.9,13.2c0.8,8.4,0.9,16.8,0.8,25.2c0,5.1-1,10.2-1.3,15.3c-0.2,3.5-1.2,5.3-5.3,5.2c-9.3-0.2-9.3,0-10.9-11.3
		C321.2,430.9,292.8,430.9,263.9,430.9z M295,380.5c-1.6-0.4-3.4-1.1-5.3-1.4c-1.1-0.2-2.2,0.4-3.3,0.6c0.6,1.1,0.9,2.8,1.8,3.2
		c2.3,0.9,4.9,1.6,7.4,1.6c5.7,0.1,11.4-0.7,17-0.1c5.5,0.7,9.3-1.8,13.6-4.2c-9.8-15.5-8-14.7-0.9-19.3c4.5-2.9,9.6-0.3,13.2,5.9
		c-2.9,4.6-5.7,9-8.7,13.8c4.9,0.3,7.1,6.1,12.7,5.2c4.7-0.7,9.5-0.1,16-0.1c-4.3-6.8-8-12.6-11.7-18.4c-3.2-5-7.9-7.4-13.6-8.3
		c-17.6-3-35.1-3.3-52.6,0.2c-9.7,1.9-22.1,16.2-23.2,26.9c8.9-1.3,18.6,2.4,27-5.3c-1.7-1.8-3.6-3.2-4.6-5.1
		c-1.3-2.6-2.7-5.7-2.4-8.4c0.3-1.9,3.4-3.4,5.5-4.8c1-0.7,2.4-0.9,3.6-1.4c4.8-1.8,8.7,1,8.6,6.3C294.9,371.7,295,375.7,295,380.5z
		 M350.4,411c5-0.1,8.8-4,8.6-9c-0.2-4.8-3.9-8.4-8.8-8.4c-5,0-8.8,4-8.7,9C341.8,407.5,345.6,411.1,350.4,411z M263.3,393.7
		c-5,0.1-8.7,4-8.5,9.1c0.2,4.8,3.9,8.3,8.8,8.2c4.8,0,8.5-3.8,8.5-8.6C272.2,397.3,268.4,393.6,263.3,393.7z"/>
	<path d="M295,380.5c0-4.8-0.1-8.9,0-12.9c0.1-5.3-3.8-8.1-8.6-6.3c-1.2,0.5-2.6,0.6-3.6,1.4c-2,1.4-5.2,3-5.5,4.8
		c-0.4,2.6,1.1,5.8,2.4,8.4c1,1.9,2.9,3.3,4.6,5.1c-8.4,7.6-18.1,4-27,5.3c1.2-10.7,13.5-25,23.2-26.9c17.5-3.4,35.1-3.2,52.6-0.2
		c5.6,1,10.4,3.3,13.6,8.3c3.7,5.8,7.4,11.6,11.7,18.4c-6.5,0-11.3-0.5-16,0.1c-5.6,0.8-7.8-5-12.7-5.2c3-4.8,5.8-9.2,8.7-13.8
		c-3.6-6.3-8.7-8.8-13.2-5.9c-7.1,4.5-9,3.7,0.9,19.3c-4.3,2.4-8.1,4.8-13.6,4.2c-5.6-0.7-11.3,0.2-17,0.1c-2.5-0.1-5.1-0.7-7.4-1.6
		c-0.9-0.3-1.2-2.1-1.8-3.2c1.1-0.2,2.3-0.7,3.3-0.6C291.6,379.4,293.4,380.1,295,380.5z"/>
	<path d="M350.4,411c-4.8,0-8.6-3.6-8.8-8.4c-0.2-5,3.7-9,8.7-9c4.9,0,8.6,3.5,8.8,8.4C359.2,407,355.4,411,350.4,411z"/>
	<path d="M263.3,393.7c5-0.1,8.8,3.7,8.8,8.8c0,4.8-3.7,8.5-8.5,8.6c-4.9,0-8.6-3.4-8.8-8.2C254.7,397.7,258.3,393.8,263.3,393.7z"
		/>
</g>
</svg>
