<?xml version="1.0" encoding="utf-8"?>
<!-- Generator: Adobe Illustrator 18.1.1, SVG Export Plug-In . SVG Version: 6.00 Build 0)  -->
<svg version="1.1" id="Layer_1" xmlns="http://www.w3.org/2000/svg" xmlns:xlink="http://www.w3.org/1999/xlink" x="0px" y="0px"
	 viewBox="0 0 612 792" enable-background="new 0 0 612 792" xml:space="preserve">
<g>
	<path fill="#ED6E18" d="M135.8,339.1c0.5-55.4,44.3-100.5,100.8-100.1c55,0.4,98.8,44,99.2,99.3c0.3,56.4-44.4,100.9-100.3,100.7
		C180.3,438.8,136.6,394.9,135.8,339.1z M306,313.9c-0.1-0.7-0.1-1.1-0.3-1.4c-3.6-9.5-8.9-17.9-15.9-25.2
		c-10.9-11.4-24-18.7-39.5-21.9c-13.1-2.7-25.9-1.6-38.5,2.4c-7.1,2.3-13.6,5.8-19.6,10.3c-11.7,8.7-20.3,19.7-25.7,33.2
		c-1,2.6-0.9,2.7,1.9,2.7c45,0,89.9,0,134.9,0C304.2,314.1,305,314,306,313.9z M165.3,339.1c-4.4-0.1-4.6,0.1-4.2,3.7
		c0.7,5.1,1.5,10.3,2.5,15.4c1.2,6.8,4.2,12.9,7.7,18.7c7.4,12.4,17.6,22.1,30.6,28.7c5.7,2.9,11.8,5,18,6.6
		c3.1,0.8,3.9,0.1,3.5-3.1c-0.5-4-1.1-7.9-1.7-11.9c-1.5-8.8-4.4-17.1-8.8-24.9c-7.2-12.7-17-22.7-30.6-28.7
		C176.6,341,170.6,339.7,165.3,339.1z M310.5,344.9c0.1-1.3,0.1-2.5,0.2-3.8c0.2-1.6-0.5-2.4-2.2-2.1c-2,0.3-4.1,0.3-6,0.8
		c-5.1,1.4-10.5,2.5-15.2,4.7c-9.7,4.5-17.4,11.6-23.6,20.3c-4.5,6.4-7.9,13.3-10.5,20.7c-2.7,7.6-3.7,15.4-4.7,23.3
		c-0.4,3.4,0.4,4,3.6,3.2c7.5-1.8,14.7-4.3,21.3-8.3C295.4,390.3,308,370.8,310.5,344.9z M235.9,326.6c-6.4-0.5-12.5,5.9-12.4,12.5
		c0.1,6.4,6,12.4,12.4,12.4c6.7,0,12.5-6.1,12.6-12.5C248.5,332.5,242.4,326.1,235.9,326.6z"/>
</g>
</svg>
