<?xml version="1.0" encoding="utf-8"?>
<!-- Generator: Adobe Illustrator 18.1.1, SVG Export Plug-In . SVG Version: 6.00 Build 0)  -->
<svg version="1.1" id="Layer_1" xmlns="http://www.w3.org/2000/svg" xmlns:xlink="http://www.w3.org/1999/xlink" x="0px" y="0px"
	 viewBox="0 0 612 792" enable-background="new 0 0 612 792" xml:space="preserve">
<path fill="#2241C4" d="M347.5,224.9c0.2,82.4-67.4,150-150,150c-82.9,0-149.9-67-150-149.9c0-83.3,66.2-149.9,149.4-150.1
	C280.3,74.6,347.4,141.4,347.5,224.9z M172.5,220.6c-3.1-1.8-6.2-3.4-9.2-5.3c-13.8-8.7-28.5-14.7-45.3-16.4
	c0.3,0.9,0.4,1.3,0.5,1.4c1.2,0.6,2.4,1.2,3.7,1.7c13.8,5.2,26.5,11.9,36.7,22.9c20.1,21.8,23,48.1,18.5,75.5
	c-2.4,14.7-7.4,29-11.4,43.9c18.2,0,36.6,0,55.2,0c-4.2-12.4-9.1-24-11.9-36.1c-6.2-26.4-5.3-52,18.2-70.5c8.9-7,19.6-11.9,30-16.9
	c14.1-6.8,28.9-12,42.8-19.1c10-5.2,16.9-14.1,21.4-26.8c-18.7,21.1-33.3,29.1-57.2,33c-26.8,4.3-53.3,9.2-70.9,33.6
	c-7.5-7.3-14.4-14.2-21.4-21c3.3-0.9,9.2-1.4,9.4-2.8c0.5-4.1,0.1-9.4-2.2-12.6c-2.8-3.8-7.9-5.9-12.6-9.3
	C164,206.5,165.8,214.2,172.5,220.6z M105.4,137.1c2.7,9.7,7.1,17.6,15,23.2c5.9,4.1,17.8,3.1,20.6-1.3c2.9-4.6-1.3-15.3-8.1-18.8
	C124.5,135.8,115.4,134.8,105.4,137.1z M68.7,194.1c-0.1,1.4-0.3,2.7-0.4,4.1c7.5,3.5,14.7,7.8,22.6,10.2c7,2.1,13.7-0.8,17.7-7.2
	c1.2-1.9,1.2-5.8,0.1-7.9c-3.8-6.5-10.2-9.7-17.4-7.8C83.5,187.5,76.2,191.2,68.7,194.1z M231.6,137.8c-1.2-0.5-2.4-1.1-3.6-1.6
	c-5.7,4.9-12,9.3-17.1,14.8c-5.3,5.7-6,13-1.7,19.7c1.3,2.1,4.7,4.4,6.9,4.1c8-1,14.1-5.7,15.2-13.9
	C232.4,153.4,231.6,145.6,231.6,137.8z M284.2,158.8c-1.3-0.5-2.6-1.1-3.9-1.6c-5.7,5-11.9,9.4-16.9,15c-5.4,6-6.5,13.5-1.3,20.4
	c1.5,2,5.4,3.7,7.9,3.3c8.3-1.3,13.1-7.2,14-15.2C284.8,173.4,284.2,166.1,284.2,158.8z M142.6,164.3c-1.2,0.6-2.4,1.3-3.7,1.9
	c0,8-0.8,16.2,0.2,24.1c0.9,7.6,6.8,11.8,14.1,12.9c2.2,0.3,5.8-1.5,7.2-3.4c4.2-5.9,4.6-12.8,0-18.3
	C155.2,175.2,148.6,169.9,142.6,164.3z M281.5,132.6c-0.9-1.4-1.7-2.8-2.6-4.3c-8.4,1.6-17.1,2.3-25.2,5
	c-7.8,2.6-12.2,13.3-9.3,18.9c2.7,5.1,15.1,6.7,20.8,1.1C271.6,147.2,276.2,139.5,281.5,132.6z M153.7,135.7
	c0.6,10.8,0.1,19.7,1.9,28.2c1.6,7.5,13.1,13.3,18,10.8c5-2.6,7.2-13.5,3.6-20.3C172.7,145.9,165.2,140.8,153.7,135.7z M114.4,240.8
	c0.5,1.3,1.1,2.6,1.6,3.9c8.5,0.1,17.2,1.3,25.5,0.1c8.3-1.1,15.1-11.7,12.9-17.5c-2.2-5.7-14.5-8.8-21.4-4
	C126.1,228.2,120.5,234.9,114.4,240.8z M195.7,164.3c-1.3,0-2.5,0.1-3.8,0.1c-3.3,7.1-7.5,13.9-9.7,21.3c-2.3,7.4,0.7,14.3,7.5,18.5
	c2,1.2,5.9,1.2,7.9,0c6.8-4.1,9.8-10.9,7.5-18.4C202.7,178.4,198.9,171.5,195.7,164.3z M279.6,251.4c0.5-1.4,1-2.7,1.5-4.1
	c-6.7-6.1-12.9-13-20.4-17.9c-6.4-4.2-17.8-0.4-19.7,4.9c-1.8,4.9,4.1,14.2,10.7,16.8c0.8,0.3,1.6,0.7,2.4,0.7
	C262.6,251.6,271.1,251.5,279.6,251.4z M251.8,166.2c-1.2-0.6-2.5-1.2-3.7-1.8c-5.9,5.4-12.3,10.3-17.5,16.4
	c-4.8,5.7-4.6,12.9-0.4,19.1c1.3,1.9,5,3.7,7.2,3.4c7.3-1.1,13.2-5.5,14.2-12.9C252.6,182.4,251.8,174.2,251.8,166.2z M304.7,232.5
	c0.5-0.9,1-1.8,1.5-2.7c-5.7-4.8-10.9-10.9-17.5-13.8c-3.6-1.6-9.6,2.4-14.6,3.9c2.3,4.3,3.5,10.2,7.1,12.6
	C288.5,237.4,296.9,235.4,304.7,232.5z M105.9,163.9c-1.1,1.1-2.2,2.2-3.3,3.3c3.3,6.4,5.7,13.3,10,18.9c3.5,4.5,9.7,5.6,14.9,1.8
	c3.4-2.4,1.9-12.3-2.9-15.4C118.9,169,112.3,166.8,105.9,163.9z M177.6,120.4c-1.3,0.4-2.7,0.9-4,1.3c1.1,6.1,1.1,12.7,3.8,18
	c1.4,2.8,7.6,3.2,11.6,4.6c0.4-4.3,2.6-9.6,0.8-12.6C187.2,127.1,181.8,124.1,177.6,120.4z M309.2,166.4c-1.2-0.7-2.4-1.3-3.6-2
	c-4.4,3.8-9.9,6.9-12.7,11.7c-1.8,2.9,0.5,8.3,1,12.5c4.1-1.8,10.1-2.4,11.9-5.5C308.5,178.4,308.2,172,309.2,166.4z M135.9,114.9
	c-0.7,1.4-1.5,2.9-2.2,4.3c4.9,4.3,9.4,9.5,15,12.5c2.4,1.3,7.1-1.9,10.8-3.1c-1.6-3.5-2.4-9-5-10.1
	C148.8,116.1,142.1,116,135.9,114.9z M253.2,118.9c-0.7-1.3-1.4-2.6-2.2-4c-6,0.9-12.5,0.8-17.9,3.1c-2.8,1.3-3.8,6.9-5.5,10.5
	c3.9,1,9,4.1,11.6,2.7C244.5,128.5,248.6,123.2,253.2,118.9z M223.8,198.4c-1.4-0.9-2.8-1.7-4.2-2.6c-4.6,4.2-10.1,7.9-13.5,13
	c-1.6,2.4,0.8,7.4,1.4,11.2c3.7-0.9,9.4-0.8,10.6-3C221.1,211.4,222,204.7,223.8,198.4z M328.5,214.4c0.1-1.1,0.3-2.2,0.4-3.3
	c-5.4-2.8-10.5-6.8-16.2-7.8c-3.3-0.6-7.5,3.7-11.3,5.7c3.2,3.2,6.1,8.6,9.5,8.9C316.7,218.5,322.6,215.8,328.5,214.4z M216.6,121.8
	c-0.9-0.4-1.8-0.8-2.7-1.3c-3.9,2.8-8.9,5-11.5,8.7c-2.2,3.3-2.1,8.4-2.3,12.7c0,1,3.9,3.4,4.7,2.9c3.7-2.3,8.4-4.7,10.1-8.3
	C216.9,132.3,216.2,126.8,216.6,121.8z M99.3,221.8c1,1.3,1.9,2.6,2.9,3.9c5.8-2.3,12.3-3.6,17.3-7.2c2.4-1.7,1.8-7.5,2.6-11.5
	c-3.9-0.1-9.1-1.9-11.3-0.1C106.1,211,103,216.8,99.3,221.8z"/>
</svg>
