<?xml version="1.0" encoding="utf-8"?>
<!-- Generator: Adobe Illustrator 18.1.1, SVG Export Plug-In . SVG Version: 6.00 Build 0)  -->
<svg version="1.1" id="Layer_1" xmlns="http://www.w3.org/2000/svg" xmlns:xlink="http://www.w3.org/1999/xlink" x="0px" y="0px"
	 viewBox="0 0 612 792" enable-background="new 0 0 612 792" xml:space="preserve">
<g>
	<path fill="#DB2A2A" d="M297,183.6c6.6,0,13.1,0,19.7,0c0.9,0.2,1.8,0.4,2.7,0.5c7.4,0.8,14.9,1.2,22.3,2.5
		c42.5,7.3,79.6,25.5,110.9,55.2c35.1,33.3,56.5,74.1,64.2,121.9c0.8,5,1.4,10,2.2,15c0,12.2,0,24.3,0,36.5
		c-0.6,4.4-1.1,8.9-1.8,13.3c-6.1,39.3-21.5,74.4-47.1,104.9c-32.6,38.8-73.9,63.1-123.7,72.9c-5.2,1-10.5,1.8-15.7,2.7
		c-15.9,0-31.8,0-47.8,0c-3.7-0.6-7.3-1.1-11-1.8c-56-10.1-101.7-37.4-135.5-83.2c-36.5-49.4-49.5-105-38.6-165.4
		c10.3-57.1,39.9-102.7,87.2-136.4c29.1-20.7,61.5-32.9,97-37C286.9,184.6,292,184.1,297,183.6z M461.7,527.7
		c0.1-0.3,0.2-0.6,0.3-0.9c-9-4-18-8.2-27.1-12c-34.4-14-70.3-21.8-107.4-23.7c-30.4-1.6-60.6,0.7-90.5,6.8
		c-28.7,5.8-56.5,14.4-83.1,26.6c-0.9,0.4-1.7,0.9-3.2,1.6c1.1,0.1,1.5,0.2,1.8,0.2c35.9,0.8,71.9,1.8,107.8,2.3
		c34,0.4,68,0.1,102,0.4c30,0.3,59.9,1.1,89.9-0.5C455.4,528.3,458.5,527.9,461.7,527.7z M339.5,300.2c-0.9,0.1-1.6,0.1-2.3,0.3
		c-9.8,2.6-19.5,5-29.2,7.8c-10.5,3-20.1,7.5-27.6,15.9c-2.3,2.6-5.4,4.5-8.1,6.6c-4.8-3.4-4.8-3.4-2.3-8c0.8-1.5,1.7-2.9,2.7-4.2
		c5.4-7.1,11.2-13.9,16.2-21.2c6.1-8.9,8.7-18.8,6.6-29.7c-0.3,0.1-0.6,0.1-0.7,0.2c-6.3,7.3-12.5,14.7-18.8,22
		c-8.6,10-14.2,21.3-14.7,34.7c-0.1,2.2-0.9,3.2-3.1,3.8c-2.4,0.6-2.9-0.9-3.8-2.3c-0.6-1.1-1.2-2.1-1.9-3.1
		c-8.3-13.7-20-21.6-36.5-21.6c-7.5,0-15-0.6-22.4-1c-1.6-0.1-3.2-0.4-4.7-0.6c3.2,1.9,6.5,3.3,9.9,4.5
		c18.7,6.9,36.9,14.9,53.7,25.9c1.7,1.1,1.7,2.2,1.3,3.9c-0.4,1.8-1.3,2.2-3.1,2.4c-5,0.4-10.1,0.7-15,1.9
		c-13.7,3.4-24.1,11.7-31.8,23.4c-2.9,4.5-5.1,9.5-7.6,14.3c0.3,0.2,0.6,0.4,0.9,0.6c7.1-8.7,16.4-14.1,26.7-18.1
		c9.4-3.7,18.1-8.4,26.3-14.4c3.5-2.6,7-5.2,10.6-7.9c1.3,1.1,2.6,2.1,3.9,3.2c-0.5,1-0.9,1.9-1.4,2.8
		c-17.3,34.3-34.7,68.6-49.9,103.8c-5.8,13.4-11.6,26.8-15,41c-1.2,5.1-1.5,10.4-2.2,15.7c15.3-3.8,29.7-7.4,43.8-10.9
		c-1.3-4.7-3-9.5-3.9-14.4c-2.7-15.1-0.5-30.1,2.6-44.8c6.6-31.5,18.6-61.2,30.9-90.9c0.9-2.2,3.6-3.1,5.7-2c4.2,2,7.7,4.9,9.8,9
		c3.2,6.2,6,12.6,8.8,19.1c3.5,8.2,7.7,15.9,14.8,21.5c3.7,3,7.9,5.4,11.8,8c0.2-0.3,0.5-0.5,0.7-0.8c-5.4-14-10.8-28-16.3-41.9
		c-0.8-2-2.2-3.7-3.5-5.4c-5.8-7.6-13.9-10.7-23.2-11.3c-3.8-0.3-3.8-0.2-3.8-4c0-0.5,0.2-1,0.2-1.5
		C305.6,329.3,327.8,314.2,339.5,300.2z M425.6,506.2c1.3-6.6-0.5-17.5-3.7-24.7c-6.7-15.2-18.1-25.9-32.7-33
		c-29.5-14.3-59.4-14.3-89-0.2c-12.8,6.1-23.3,15.2-30.4,27.8c-2.1,3.8-3.6,8-5.7,12.6C319.9,482.1,373.4,487.5,425.6,506.2z"/>
</g>
</svg>
