<?xml version="1.0" encoding="utf-8"?>
<!-- Generator: Adobe Illustrator 18.1.1, SVG Export Plug-In . SVG Version: 6.00 Build 0)  -->
<svg version="1.1" id="Layer_1" xmlns="http://www.w3.org/2000/svg" xmlns:xlink="http://www.w3.org/1999/xlink" x="0px" y="0px"
	 viewBox="0 0 20 20" enable-background="new 0 0 20 20" xml:space="preserve">
<g>
	<path fill="#FFFFFF" d="M-100,0.1C-100.1-55.3-55.9-99.4-0.5-100C51.2-100.5,99.8-59.5,100-0.4C100.2,55.7,56.1,99.9,0.1,100
		C-58.4,100.1-100.6,52.4-100,0.1z M-14.6-19.8c-11.7,1.2-11.7,1.2-11.7,12.2c0,0.5,0,1,0,1.5c0,6.5,0,6.7,6.5,6.6
		c3.9,0,5.2,1.2,5.1,5.2c-0.2,14.6-0.1,29.2-0.1,43.9c0,1.7,0.2,3.5,0.3,5.1c8,0,15.4,0,23.3,0c0-18.1,0-35.8,0-54.3
		c5.2,0,9.9,0,14.8,0c0.8-6.9,1.4-13,2.2-19.8c-6.1,0-11.3,0-17,0c0-3.9,0.1-7.1,0-10.4c-0.1-3.6,1.8-5,5.1-5.3
		c3.8-0.3,9.3,0.3,11.1-1.8c2-2.4,0.7-7.6,0.8-11.6c0-1-0.1-2,0-3c0.2-2.8-1.1-3.8-3.8-3.8c-5,0.1-10-0.1-15,0.2
		c-13.9,0.8-21.2,8.4-21.7,22.2C-14.7-28.7-14.6-24.4-14.6-19.8z"/>
</g>
</svg>
